# xmcd CD database file
#
# Track frame offsets:
#	150
#	13376
#	25575
#	33720
#	47076
#	60450
#	74675
#	95617
#	113364
#	123014
#	139120
#	154348
#	170006
#	183628
#	194088
#	204226
#
# Disc length: 3082 seconds
#
# Revision: 0
# Processed by: cddbd v1.5.1PL2 Copyright (c) Steve Scherf et al.
# Submitted via: CDex 1.51
#
DISCID=e60c0810
DTITLE=Am Ketenes Swing - La Poupa
DYEAR=2004
DGENRE=Jazz
TTITLE0=Bossa Cantique
TTITLE1=I'll Close My Eyes
TTITLE2=Minouche
TTITLE3=La Poupa
TTITLE4=My Melancholy Baby
TTITLE5=Feu de Bois
TTITLE6=Reveries Swing
TTITLE7=Notre Histoire - Tu Djaïal
TTITLE8=Hans Che's Swing
TTITLE9=Improvisation N°3
TTITLE10=Saint Germain-des-Prés
TTITLE11=Savoir Vivre
TTITLE12=La Poupa 2
TTITLE13=Latcheben
TTITLE14=Terni Tchai
TTITLE15=Minor Swing
EXTD=YEAR: 2004
EXTT0=
EXTT1=
EXTT2=
EXTT3=
EXTT4=
EXTT5=
EXTT6=
EXTT7=
EXTT8=
EXTT9=
EXTT10=
EXTT11=
EXTT12=
EXTT13=
EXTT14=
EXTT15=
PLAYORDER=
